# This file is brought to you by Roblox Corporation
# Generated by Roblox Studio

mtllib ã….mtl

g Part1

v -553.522 34.1533 360.012 
v -537.1 34.1533 360.012 
v -553.522 17.0996 360.012 
v -537.1 17.0996 360.012 
v -537.1 34.1533 372.4 
v -537.1 34.1533 360.012 
v -553.522 34.1533 372.4 
v -553.522 34.1533 360.012 
v -537.1 34.1533 360.012 
v -537.1 34.1533 372.4 
v -537.1 17.0996 360.012 
v -537.1 17.0996 372.4 
v -537.1 34.1533 372.4 
v -553.522 34.1533 372.4 
v -537.1 17.0996 372.4 
v -553.522 17.0996 372.4 
v -553.522 17.0996 372.4 
v -553.522 17.0996 360.012 
v -537.1 17.0996 372.4 
v -537.1 17.0996 360.012 
v -553.522 34.1533 372.4 
v -553.522 34.1533 360.012 
v -553.522 17.0996 372.4 
v -553.522 17.0996 360.012 

vn 0 0 -1 
vn 0 0 -1 
vn 0 0 -1 
vn 0 0 -1 
vn 0 1 0 
vn 0 1 0 
vn 0 1 0 
vn 0 1 0 
vn 1 0 0 
vn 1 0 0 
vn 1 0 0 
vn 1 0 0 
vn 0 0 1 
vn 0 0 1 
vn 0 0 1 
vn 0 0 1 
vn 0 -1 0 
vn 0 -1 0 
vn 0 -1 0 
vn 0 -1 0 
vn -1 0 0 
vn -1 0 0 
vn -1 0 0 
vn -1 0 0 

vt 8.55273 -5 
vt 6.5 -5 
vt 8.55273 -7.13171 
vt 6.5 -7.13171 
vt 8.04851 -5 
vt 6.5 -5 
vt 8.04851 -7.05273 
vt 6.5 -7.05273 
vt 8.04851 -5 
vt 6.5 -5 
vt 8.04851 -7.13171 
vt 6.5 -7.13171 
vt 8.55273 -5 
vt 6.5 -5 
vt 8.55273 -7.13171 
vt 6.5 -7.13171 
vt 8.04851 -5 
vt 6.5 -5 
vt 8.04851 -7.05273 
vt 6.5 -7.05273 
vt 8.04851 -5 
vt 6.5 -5 
vt 8.04851 -7.13171 
vt 6.5 -7.13171 

usemtl Part1Mtl

f 1/1/1 2/2/2 3/3/3 
f 3/3/3 2/2/2 4/4/4 
f 5/5/5 6/6/6 7/7/7 
f 7/7/7 6/6/6 8/8/8 
f 9/9/9 10/10/10 11/11/11 
f 11/11/11 10/10/10 12/12/12 
f 13/13/13 14/14/14 15/15/15 
f 15/15/15 14/14/14 16/16/16 
f 17/17/17 18/18/18 19/19/19 
f 19/19/19 18/18/18 20/20/20 
f 21/21/21 22/22/22 23/23/23 
f 23/23/23 22/22/22 24/24/24 

g Part2

v -537.08 34.1533 360.012 
v -537.08 34.1533 372.4 
v -537.08 17.0996 360.012 
v -537.08 17.0996 372.4 

vn 1 0 0 
vn 1 0 0 
vn 1 0 0 
vn 1 0 0 

vt 1.23881 1 
vt 0 1 
vt 1.23881 -0.705366 
vt 0 -0.705366 

usemtl Part2Mtl

f 25/25/25 26/26/26 27/27/27 
f 27/27/27 26/26/26 28/28/28 

g Part3

v -537.1 17.0796 360.012 
v -537.1 17.0796 372.4 
v -553.522 17.0796 360.012 
v -553.522 17.0796 372.4 

vn 0 -1 0 
vn 0 -1 0 
vn 0 -1 0 
vn 0 -1 0 

vt 1.23881 1 
vt 0 1 
vt 1.23881 -0.642185 
vt 0 -0.642185 

usemtl Part2Mtl

f 29/29/29 30/30/30 31/31/31 
f 31/31/31 30/30/30 32/32/32 

g Part4

v -553.542 34.1533 372.4 
v -553.542 34.1533 360.012 
v -553.542 17.0996 372.4 
v -553.542 17.0996 360.012 

vn -1 0 0 
vn -1 0 0 
vn -1 0 0 
vn -1 0 0 

vt 1.23881 1 
vt 0 1 
vt 1.23881 -0.705366 
vt 0 -0.705366 

usemtl Part2Mtl

f 33/33/33 34/34/34 35/35/35 
f 35/35/35 34/34/34 36/36/36 

g Part5

v -537.1 34.1533 372.42 
v -553.522 34.1533 372.42 
v -537.1 17.0996 372.42 
v -553.522 17.0996 372.42 

vn 0 0 1 
vn 0 0 1 
vn 0 0 1 
vn 0 0 1 

vt 1.64219 1 
vt 0 1 
vt 1.64219 -0.705366 
vt 0 -0.705366 

usemtl Part2Mtl

f 37/37/37 38/38/38 39/39/39 
f 39/39/39 38/38/38 40/40/40 

g Part6

v -553.522 34.1533 359.992 
v -537.1 34.1533 359.992 
v -553.522 17.0996 359.992 
v -537.1 17.0996 359.992 

vn 0 0 -1 
vn 0 0 -1 
vn 0 0 -1 
vn 0 0 -1 

vt 1.64219 1 
vt 0 1 
vt 1.64219 -0.705366 
vt 0 -0.705366 

usemtl Part2Mtl

f 41/41/41 42/42/42 43/43/43 
f 43/43/43 42/42/42 44/44/44 

g Part7

v -537.1 34.1733 372.4 
v -537.1 34.1733 360.012 
v -553.522 34.1733 372.4 
v -553.522 34.1733 360.012 

vn 0 1 0 
vn 0 1 0 
vn 0 1 0 
vn 0 1 0 

vt 1.23881 1 
vt 0 1 
vt 1.23881 -0.642185 
vt 0 -0.642185 

usemtl Part2Mtl

f 45/45/45 46/46/46 47/47/47 
f 47/47/47 46/46/46 48/48/48 

g Part8

v -554.622 17.0996 373.5 
v -554.622 17.0996 357.6 
v -554.622 1.25365 373.5 
v -554.622 1.25365 357.6 
v -536.722 17.0996 357.6 
v -554.622 17.0996 357.6 
v -536.722 17.0996 373.5 
v -554.622 17.0996 373.5 
v -554.622 17.0996 357.6 
v -536.722 17.0996 357.6 
v -554.622 1.25365 357.6 
v -536.722 1.25365 357.6 
v -536.722 17.0996 357.6 
v -536.722 17.0996 373.5 
v -536.722 1.25365 357.6 
v -536.722 1.25365 373.5 
v -536.722 1.25365 373.5 
v -554.622 1.25365 373.5 
v -536.722 1.25365 357.6 
v -554.622 1.25365 357.6 
v -536.722 17.0996 373.5 
v -554.622 17.0996 373.5 
v -536.722 1.25365 373.5 
v -554.622 1.25365 373.5 

vn -1 0 0 
vn -1 0 0 
vn -1 0 0 
vn -1 0 0 
vn 0 1 0 
vn 0 1 0 
vn 0 1 0 
vn 0 1 0 
vn 0 0 -1 
vn 0 0 -1 
vn 0 0 -1 
vn 0 0 -1 
vn 1 0 0 
vn 1 0 0 
vn 1 0 0 
vn 1 0 0 
vn 0 -1 0 
vn 0 -1 0 
vn 0 -1 0 
vn 0 -1 0 
vn 0 0 1 
vn 0 0 1 
vn 0 0 1 
vn 0 0 1 

vt 3.7375 -0.125 
vt 1.75 -0.125 
vt 3.7375 -2.10575 
vt 1.75 -2.10575 
vt 3.9875 -0.125 
vt 1.75 -0.125 
vt 3.9875 -2.1125 
vt 1.75 -2.1125 
vt 3.9875 -0.125 
vt 1.75 -0.125 
vt 3.9875 -2.10575 
vt 1.75 -2.10575 
vt 3.7375 -0.125 
vt 1.75 -0.125 
vt 3.7375 -2.10575 
vt 1.75 -2.10575 
vt 3.9875 -0.125 
vt 1.75 -0.125 
vt 3.9875 -2.1125 
vt 1.75 -2.1125 
vt 3.9875 -0.125 
vt 1.75 -0.125 
vt 3.9875 -2.10575 
vt 1.75 -2.10575 

usemtl Part1Mtl

f 49/49/49 50/50/50 51/51/51 
f 51/51/51 50/50/50 52/52/52 
f 53/53/53 54/54/54 55/55/55 
f 55/55/55 54/54/54 56/56/56 
f 57/57/57 58/58/58 59/59/59 
f 59/59/59 58/58/58 60/60/60 
f 61/61/61 62/62/62 63/63/63 
f 63/63/63 62/62/62 64/64/64 
f 65/65/65 66/66/66 67/67/67 
f 67/67/67 66/66/66 68/68/68 
f 69/69/69 70/70/70 71/71/71 
f 71/71/71 70/70/70 72/72/72 

g Part9

v -554.622 17.0996 357.58 
v -536.722 17.0996 357.58 
v -554.622 1.25365 357.58 
v -536.722 1.25365 357.58 

vn 0 0 -1 
vn 0 0 -1 
vn 0 0 -1 
vn 0 0 -1 

vt 1.79 1 
vt 0 1 
vt 1.79 -0.584597 
vt 0 -0.584597 

usemtl Part9Mtl

f 73/73/73 74/74/74 75/75/75 
f 75/75/75 74/74/74 76/76/76 

g Part10

v -554.622 1.23365 357.6 
v -536.722 1.23365 357.6 
v -554.622 1.23365 373.5 
v -536.722 1.23365 373.5 

vn 0 -1 0 
vn 0 -1 0 
vn 0 -1 0 
vn 0 -1 0 

vt 1.79 1 
vt 0 1 
vt 1.79 -0.59 
vt 0 -0.59 

usemtl Part9Mtl

f 77/77/77 78/78/78 79/79/79 
f 79/79/79 78/78/78 80/80/80 

g Part11

v -536.722 17.0996 373.52 
v -554.622 17.0996 373.52 
v -536.722 1.25365 373.52 
v -554.622 1.25365 373.52 

vn 0 0 1 
vn 0 0 1 
vn 0 0 1 
vn 0 0 1 

vt 1.79 1 
vt 0 1 
vt 1.79 -0.584597 
vt 0 -0.584597 

usemtl Part9Mtl

f 81/81/81 82/82/82 83/83/83 
f 83/83/83 82/82/82 84/84/84 

g Part12

v -536.702 17.0996 357.6 
v -536.702 17.0996 373.5 
v -536.702 1.25365 357.6 
v -536.702 1.25365 373.5 

vn 1 0 0 
vn 1 0 0 
vn 1 0 0 
vn 1 0 0 

vt 1.59 1 
vt 0 1 
vt 1.59 -0.584597 
vt 0 -0.584597 

usemtl Part9Mtl

f 85/85/85 86/86/86 87/87/87 
f 87/87/87 86/86/86 88/88/88 

g Part13

v -554.642 17.0996 373.5 
v -554.642 17.0996 357.6 
v -554.642 1.25365 373.5 
v -554.642 1.25365 357.6 

vn -1 0 0 
vn -1 0 0 
vn -1 0 0 
vn -1 0 0 

vt 1.59 1 
vt 0 1 
vt 1.59 -0.584597 
vt 0 -0.584597 

usemtl Part9Mtl

f 89/89/89 90/90/90 91/91/91 
f 91/91/91 90/90/90 92/92/92 

g Part14

v -536.722 17.1196 357.6 
v -554.622 17.1196 357.6 
v -536.722 17.1196 373.5 
v -554.622 17.1196 373.5 

vn 0 1 0 
vn 0 1 0 
vn 0 1 0 
vn 0 1 0 

vt 1.79 1 
vt 0 1 
vt 1.79 -0.59 
vt 0 -0.59 

usemtl Part9Mtl

f 93/93/93 94/94/94 95/95/95 
f 95/95/95 94/94/94 96/96/96 

g Part15

v -503.822 33.6603 360.012 
v -487.4 33.6603 360.012 
v -503.822 16.6066 360.012 
v -487.4 16.6066 360.012 
v -487.4 33.6603 372.4 
v -487.4 33.6603 360.012 
v -503.822 33.6603 372.4 
v -503.822 33.6603 360.012 
v -487.4 33.6603 360.012 
v -487.4 33.6603 372.4 
v -487.4 16.6066 360.012 
v -487.4 16.6066 372.4 
v -487.4 33.6603 372.4 
v -503.822 33.6603 372.4 
v -487.4 16.6066 372.4 
v -503.822 16.6066 372.4 
v -503.822 16.6066 372.4 
v -503.822 16.6066 360.012 
v -487.4 16.6066 372.4 
v -487.4 16.6066 360.012 
v -503.822 33.6603 372.4 
v -503.822 33.6603 360.012 
v -503.822 16.6066 372.4 
v -503.822 16.6066 360.012 

vn 0 0 -1 
vn 0 0 -1 
vn 0 0 -1 
vn 0 0 -1 
vn 0 1 0 
vn 0 1 0 
vn 0 1 0 
vn 0 1 0 
vn 1 0 0 
vn 1 0 0 
vn 1 0 0 
vn 1 0 0 
vn 0 0 1 
vn 0 0 1 
vn 0 0 1 
vn 0 0 1 
vn 0 -1 0 
vn 0 -1 0 
vn 0 -1 0 
vn 0 -1 0 
vn -1 0 0 
vn -1 0 0 
vn -1 0 0 
vn -1 0 0 

vt 7.42773 -1.375 
vt 5.375 -1.375 
vt 7.42773 -3.50671 
vt 5.375 -3.50671 
vt 6.92351 -1.375 
vt 5.375 -1.375 
vt 6.92351 -3.42773 
vt 5.375 -3.42773 
vt 6.92351 -1.375 
vt 5.375 -1.375 
vt 6.92351 -3.50671 
vt 5.375 -3.50671 
vt 7.42773 -1.375 
vt 5.375 -1.375 
vt 7.42773 -3.50671 
vt 5.375 -3.50671 
vt 6.92351 -1.375 
vt 5.375 -1.375 
vt 6.92351 -3.42773 
vt 5.375 -3.42773 
vt 6.92351 -1.375 
vt 5.375 -1.375 
vt 6.92351 -3.50671 
vt 5.375 -3.50671 

usemtl Part1Mtl

f 97/97/97 98/98/98 99/99/99 
f 99/99/99 98/98/98 100/100/100 
f 101/101/101 102/102/102 103/103/103 
f 103/103/103 102/102/102 104/104/104 
f 105/105/105 106/106/106 107/107/107 
f 107/107/107 106/106/106 108/108/108 
f 109/109/109 110/110/110 111/111/111 
f 111/111/111 110/110/110 112/112/112 
f 113/113/113 114/114/114 115/115/115 
f 115/115/115 114/114/114 116/116/116 
f 117/117/117 118/118/118 119/119/119 
f 119/119/119 118/118/118 120/120/120 

g Part16

v -487.38 33.6603 360.012 
v -487.38 33.6603 372.4 
v -487.38 16.6066 360.012 
v -487.38 16.6066 372.4 

vn 1 0 0 
vn 1 0 0 
vn 1 0 0 
vn 1 0 0 

vt 1.23881 1 
vt 0 1 
vt 1.23881 -0.705366 
vt 0 -0.705366 

usemtl Part2Mtl

f 121/121/121 122/122/122 123/123/123 
f 123/123/123 122/122/122 124/124/124 

g Part17

v -487.4 16.5866 360.012 
v -487.4 16.5866 372.4 
v -503.822 16.5866 360.012 
v -503.822 16.5866 372.4 

vn 0 -1 0 
vn 0 -1 0 
vn 0 -1 0 
vn 0 -1 0 

vt 1.23881 1 
vt 0 1 
vt 1.23881 -0.642185 
vt 0 -0.642185 

usemtl Part2Mtl

f 125/125/125 126/126/126 127/127/127 
f 127/127/127 126/126/126 128/128/128 

g Part18

v -503.842 33.6603 372.4 
v -503.842 33.6603 360.012 
v -503.842 16.6066 372.4 
v -503.842 16.6066 360.012 

vn -1 0 0 
vn -1 0 0 
vn -1 0 0 
vn -1 0 0 

vt 1.23881 1 
vt 0 1 
vt 1.23881 -0.705366 
vt 0 -0.705366 

usemtl Part2Mtl

f 129/129/129 130/130/130 131/131/131 
f 131/131/131 130/130/130 132/132/132 

g Part19

v -487.4 33.6603 372.42 
v -503.822 33.6603 372.42 
v -487.4 16.6066 372.42 
v -503.822 16.6066 372.42 

vn 0 0 1 
vn 0 0 1 
vn 0 0 1 
vn 0 0 1 

vt 1.64219 1 
vt 0 1 
vt 1.64219 -0.705366 
vt 0 -0.705366 

usemtl Part2Mtl

f 133/133/133 134/134/134 135/135/135 
f 135/135/135 134/134/134 136/136/136 

g Part20

v -503.822 33.6603 359.992 
v -487.4 33.6603 359.992 
v -503.822 16.6066 359.992 
v -487.4 16.6066 359.992 

vn 0 0 -1 
vn 0 0 -1 
vn 0 0 -1 
vn 0 0 -1 

vt 1.64219 1 
vt 0 1 
vt 1.64219 -0.705366 
vt 0 -0.705366 

usemtl Part2Mtl

f 137/137/137 138/138/138 139/139/139 
f 139/139/139 138/138/138 140/140/140 

g Part21

v -487.4 33.6803 372.4 
v -487.4 33.6803 360.012 
v -503.822 33.6803 372.4 
v -503.822 33.6803 360.012 

vn 0 1 0 
vn 0 1 0 
vn 0 1 0 
vn 0 1 0 

vt 1.23881 1 
vt 0 1 
vt 1.23881 -0.642185 
vt 0 -0.642185 

usemtl Part2Mtl

f 141/141/141 142/142/142 143/143/143 
f 143/143/143 142/142/142 144/144/144 

g Part22

v -504.422 17.1526 373.5 
v -504.422 17.1526 357.6 
v -504.422 1.30661 373.5 
v -504.422 1.30661 357.6 
v -486.522 17.1526 357.6 
v -504.422 17.1526 357.6 
v -486.522 17.1526 373.5 
v -504.422 17.1526 373.5 
v -504.422 17.1526 357.6 
v -486.522 17.1526 357.6 
v -504.422 1.30661 357.6 
v -486.522 1.30661 357.6 
v -486.522 17.1526 357.6 
v -486.522 17.1526 373.5 
v -486.522 1.30661 357.6 
v -486.522 1.30661 373.5 
v -486.522 1.30661 373.5 
v -504.422 1.30661 373.5 
v -486.522 1.30661 357.6 
v -504.422 1.30661 357.6 
v -486.522 17.1526 373.5 
v -504.422 17.1526 373.5 
v -486.522 1.30661 373.5 
v -504.422 1.30661 373.5 

vn -1 0 0 
vn -1 0 0 
vn -1 0 0 
vn -1 0 0 
vn 0 1 0 
vn 0 1 0 
vn 0 1 0 
vn 0 1 0 
vn 0 0 -1 
vn 0 0 -1 
vn 0 0 -1 
vn 0 0 -1 
vn 1 0 0 
vn 1 0 0 
vn 1 0 0 
vn 1 0 0 
vn 0 -1 0 
vn 0 -1 0 
vn 0 -1 0 
vn 0 -1 0 
vn 0 0 1 
vn 0 0 1 
vn 0 0 1 
vn 0 0 1 

vt 8.9875 -1.25 
vt 7 -1.25 
vt 8.9875 -3.23075 
vt 7 -3.23075 
vt 9.2375 -1.25 
vt 7 -1.25 
vt 9.2375 -3.2375 
vt 7 -3.2375 
vt 9.2375 -1.25 
vt 7 -1.25 
vt 9.2375 -3.23075 
vt 7 -3.23075 
vt 8.9875 -1.25 
vt 7 -1.25 
vt 8.9875 -3.23075 
vt 7 -3.23075 
vt 9.2375 -1.25 
vt 7 -1.25 
vt 9.2375 -3.2375 
vt 7 -3.2375 
vt 9.2375 -1.25 
vt 7 -1.25 
vt 9.2375 -3.23075 
vt 7 -3.23075 

usemtl Part1Mtl

f 145/145/145 146/146/146 147/147/147 
f 147/147/147 146/146/146 148/148/148 
f 149/149/149 150/150/150 151/151/151 
f 151/151/151 150/150/150 152/152/152 
f 153/153/153 154/154/154 155/155/155 
f 155/155/155 154/154/154 156/156/156 
f 157/157/157 158/158/158 159/159/159 
f 159/159/159 158/158/158 160/160/160 
f 161/161/161 162/162/162 163/163/163 
f 163/163/163 162/162/162 164/164/164 
f 165/165/165 166/166/166 167/167/167 
f 167/167/167 166/166/166 168/168/168 

g Part23

v -504.422 17.1526 357.58 
v -486.522 17.1526 357.58 
v -504.422 1.30661 357.58 
v -486.522 1.30661 357.58 

vn 0 0 -1 
vn 0 0 -1 
vn 0 0 -1 
vn 0 0 -1 

vt 1.79 1 
vt 0 1 
vt 1.79 -0.584597 
vt 0 -0.584597 

usemtl Part9Mtl

f 169/169/169 170/170/170 171/171/171 
f 171/171/171 170/170/170 172/172/172 

g Part24

v -504.422 1.28661 357.6 
v -486.522 1.28661 357.6 
v -504.422 1.28661 373.5 
v -486.522 1.28661 373.5 

vn 0 -1 0 
vn 0 -1 0 
vn 0 -1 0 
vn 0 -1 0 

vt 1.79 1 
vt 0 1 
vt 1.79 -0.59 
vt 0 -0.59 

usemtl Part9Mtl

f 173/173/173 174/174/174 175/175/175 
f 175/175/175 174/174/174 176/176/176 

g Part25

v -486.522 17.1526 373.52 
v -504.422 17.1526 373.52 
v -486.522 1.30661 373.52 
v -504.422 1.30661 373.52 

vn 0 0 1 
vn 0 0 1 
vn 0 0 1 
vn 0 0 1 

vt 1.79 1 
vt 0 1 
vt 1.79 -0.584597 
vt 0 -0.584597 

usemtl Part9Mtl

f 177/177/177 178/178/178 179/179/179 
f 179/179/179 178/178/178 180/180/180 

g Part26

v -486.502 17.1526 357.6 
v -486.502 17.1526 373.5 
v -486.502 1.30661 357.6 
v -486.502 1.30661 373.5 

vn 1 0 0 
vn 1 0 0 
vn 1 0 0 
vn 1 0 0 

vt 1.59 1 
vt 0 1 
vt 1.59 -0.584597 
vt 0 -0.584597 

usemtl Part9Mtl

f 181/181/181 182/182/182 183/183/183 
f 183/183/183 182/182/182 184/184/184 

g Part27

v -504.442 17.1526 373.5 
v -504.442 17.1526 357.6 
v -504.442 1.30661 373.5 
v -504.442 1.30661 357.6 

vn -1 0 0 
vn -1 0 0 
vn -1 0 0 
vn -1 0 0 

vt 1.59 1 
vt 0 1 
vt 1.59 -0.584597 
vt 0 -0.584597 

usemtl Part9Mtl

f 185/185/185 186/186/186 187/187/187 
f 187/187/187 186/186/186 188/188/188 

g Part28

v -486.522 17.1726 357.6 
v -504.422 17.1726 357.6 
v -486.522 17.1726 373.5 
v -504.422 17.1726 373.5 

vn 0 1 0 
vn 0 1 0 
vn 0 1 0 
vn 0 1 0 

vt 1.79 1 
vt 0 1 
vt 1.79 -0.59 
vt 0 -0.59 

usemtl Part9Mtl

f 189/189/189 190/190/190 191/191/191 
f 191/191/191 190/190/190 192/192/192 

